<svg width="65" height="65" viewBox="0 0 65 65" fill="none" xmlns="http://www.w3.org/2000/svg">
<circle cx="32.5" cy="32.5" r="32.5" fill="#F6E8D4"/>
<path d="M40.0102 14.6189C40.3145 14.72 40.6406 14.785 40.9304 14.9223C42.2636 15.5724 42.9736 16.6414 42.9736 18.1294C42.9809 25.2299 42.9736 32.3303 42.9736 39.4308C42.9736 39.568 42.9736 39.7052 42.9736 39.9292C43.2055 39.7558 43.3721 39.6258 43.5388 39.4958C44.5242 38.7446 45.5023 37.9861 46.4949 37.2349C46.6616 37.1049 46.7051 37.011 46.6181 36.7943C46.1182 35.5158 46.7993 34.1217 48.089 33.7388C49.4004 33.3488 50.7626 34.1361 51.0379 35.4941C51.219 36.3898 50.9509 37.1699 50.2336 37.7477C49.5091 38.3256 48.6831 38.4412 47.8281 38.0583C47.5818 37.95 47.4369 37.9717 47.2267 38.1306C45.8863 39.1707 44.5387 40.1964 43.1982 41.2438C43.0823 41.3377 42.9881 41.5327 42.9881 41.6844C42.9736 43.4108 42.9809 45.1444 42.9809 46.8779C42.9736 48.8788 41.4666 50.3884 39.4596 50.3884C35.2499 50.3884 31.0475 50.3884 26.8379 50.3884C24.8164 50.3884 23.3093 48.8788 23.3093 46.849C23.3093 44.7471 23.3093 42.6451 23.3093 40.5431C23.3093 40.4131 23.3093 40.2831 23.3093 40.0809C22.0268 41.0632 20.8023 42.0022 19.5634 42.9485C19.8097 43.4974 19.9112 44.0392 19.7662 44.6098C19.4329 45.8956 18.1143 46.6396 16.8463 46.2567C15.5856 45.8739 14.9045 44.5015 15.3537 43.2591C15.8029 42.0167 17.2158 41.3955 18.4258 41.93C18.7011 42.0528 18.8606 42.0239 19.0924 41.8505C20.4038 40.8321 21.7225 39.8208 23.0485 38.8168C23.2513 38.6651 23.3238 38.5062 23.3238 38.2534C23.3165 31.608 23.3165 24.9626 23.3165 18.3244C23.3165 16.3886 24.2947 15.1462 26.1858 14.6767C26.222 14.6695 26.251 14.6406 26.28 14.6261C30.8446 14.6189 35.431 14.6189 40.0102 14.6189ZM40.1551 42.0889C40.6551 41.7061 41.0825 41.3594 41.539 41.0415C41.7636 40.8826 41.8288 40.7093 41.8288 40.442C41.8216 33.3054 41.8216 26.1689 41.8216 19.0323C41.8216 18.7073 41.8288 18.3822 41.8216 18.0572C41.7854 17.0242 41.1405 16.1863 40.1696 15.883C39.887 15.7963 39.6842 15.818 39.4668 16.0491C38.8944 16.6486 38.3075 17.2409 37.6989 17.8043C37.5395 17.9488 37.2787 18.0644 37.0685 18.0644C34.4529 18.0788 31.8373 18.0788 29.2216 18.0644C29.0115 18.0644 28.7507 17.9488 28.5913 17.8043C27.9827 17.2409 27.3958 16.6486 26.8234 16.0491C26.606 15.818 26.3959 15.7963 26.1206 15.883C25.0917 16.2008 24.4613 17.0676 24.4541 18.2016C24.4541 24.5942 24.4541 30.9868 24.4541 37.3794C24.4541 37.466 24.4686 37.5527 24.4831 37.69C24.8671 37.3938 25.2221 37.1482 25.5409 36.8665C25.6279 36.7871 25.6931 36.5992 25.6713 36.4837C25.483 35.5447 25.7438 34.7573 26.4828 34.165C27.2219 33.5727 28.0624 33.4716 28.9246 33.8761C29.794 34.2878 30.2288 35.0101 30.2577 35.978C30.265 36.1225 30.3447 36.3031 30.4534 36.3898C32.598 38.0439 34.75 39.6908 36.8946 41.3377C37.0468 41.4533 37.1555 41.4749 37.3366 41.3883C38.293 40.926 39.3002 41.121 40.0464 41.8867C40.0899 41.9372 40.1116 42.0167 40.1551 42.0889ZM38.3437 49.2255C38.706 49.2255 39.0176 49.2255 39.3291 49.2255C40.8362 49.2183 41.8143 48.2503 41.8143 46.7407C41.8143 45.3827 41.8143 44.0247 41.8143 42.6668C41.8143 42.5656 41.8143 42.4645 41.8143 42.2839C41.4593 42.5512 41.155 42.7607 40.8797 43.0063C40.7637 43.1074 40.6623 43.2952 40.6623 43.4397C40.6333 44.4004 40.1044 45.2455 39.2277 45.585C38.3148 45.9389 37.4743 45.7872 36.7497 45.1227C36.0542 44.487 35.8368 43.5047 36.1991 42.6162C36.3005 42.3706 36.2063 42.2767 36.0397 42.1539C34.8152 41.2221 33.5907 40.2831 32.3734 39.3441C31.5185 38.6868 30.6563 38.0294 29.8013 37.3721C28.4754 38.4773 27.8377 38.5423 26.3669 37.7044C25.78 38.1522 25.1859 38.6001 24.6062 39.0696C24.5193 39.1346 24.4541 39.2863 24.4541 39.3946C24.4468 41.9083 24.4324 44.4148 24.4541 46.9285C24.4613 47.8964 24.954 48.6115 25.8525 49.0232C26.5118 49.3194 27.2146 49.211 27.9174 49.211C27.9174 49.0016 27.9174 48.8354 27.9174 48.6693C27.9247 47.658 28.6637 46.9213 29.6781 46.9213C31.9894 46.9213 34.308 46.914 36.6193 46.9213C37.5685 46.9213 38.3148 47.6725 38.3293 48.6115C38.3437 48.7993 38.3437 48.9943 38.3437 49.2255ZM38.0902 15.8035C34.75 15.8035 31.504 15.8035 28.2 15.8035C28.5623 16.1647 28.8739 16.4825 29.1999 16.7786C29.2868 16.8581 29.4245 16.9159 29.5404 16.9159C31.9387 16.9231 34.337 16.9231 36.728 16.9159C36.8439 16.9159 36.9816 16.8581 37.0685 16.7786C37.4018 16.4825 37.7134 16.1647 38.0902 15.8035ZM37.1917 49.211C37.1917 49.016 37.199 48.8643 37.1917 48.7054C37.17 48.3081 36.9526 48.0698 36.5613 48.0698C34.2863 48.0625 32.0039 48.0625 29.7288 48.0698C29.3303 48.0698 29.113 48.3081 29.0985 48.7054C29.0912 48.8715 29.0985 49.0305 29.0985 49.2038C31.801 49.211 34.4746 49.211 37.1917 49.211ZM29.084 35.9492C29.0767 35.3352 28.5333 34.7934 27.9174 34.8079C27.2943 34.8151 26.7654 35.3568 26.7727 35.9708C26.7799 36.5848 27.3233 37.1193 27.9392 37.1121C28.5551 37.1049 29.0912 36.5631 29.084 35.9492ZM49.9148 35.978C49.9221 35.3641 49.3932 34.8223 48.7773 34.8079C48.1687 34.7934 47.618 35.328 47.6035 35.9419C47.589 36.5559 48.1179 37.0977 48.7411 37.1121C49.3569 37.1265 49.9076 36.592 49.9148 35.978ZM39.503 43.4613C39.503 42.8474 38.9741 42.3128 38.351 42.3056C37.7351 42.2984 37.1917 42.8401 37.1917 43.4541C37.1917 44.0753 37.7206 44.6098 38.3437 44.6098C38.9596 44.6098 39.4958 44.0753 39.503 43.4613ZM17.5129 45.1877C18.1288 45.1877 18.6722 44.6459 18.6649 44.032C18.6577 43.4108 18.1288 42.8835 17.5056 42.8835C16.8898 42.8835 16.3536 43.4252 16.3536 44.0392C16.3608 44.6532 16.897 45.1877 17.5129 45.1877Z" fill="black"/>
<path d="M30.2433 31.3335C30.649 31.3335 31.004 31.3335 31.4025 31.3335C31.4025 31.189 31.4025 31.0662 31.4025 30.9362C31.4025 29.3977 31.4025 27.8591 31.4025 26.3206C31.4025 25.7644 31.5837 25.5838 32.1271 25.5838C32.8154 25.5838 33.5037 25.5838 34.1921 25.5838C34.6703 25.5838 34.8731 25.7861 34.8731 26.2628C34.8731 27.8158 34.8731 29.3616 34.8731 30.9146C34.8731 31.0446 34.8731 31.1746 34.8731 31.3263C35.2644 31.3263 35.6267 31.3263 36.0324 31.3263C36.0324 31.189 36.0324 31.059 36.0324 30.929C36.0324 29.0076 36.0324 27.0862 36.0324 25.1576C36.0324 24.6014 36.2136 24.4209 36.7642 24.4209C37.4525 24.4209 38.1409 24.4209 38.8292 24.4209C39.3074 24.4209 39.503 24.6231 39.503 25.1071C39.503 27.0429 39.503 28.9787 39.503 30.9073C39.503 31.0374 39.503 31.1674 39.503 31.3335C39.8943 31.3335 40.2638 31.3335 40.6406 31.3335C40.6406 31.7308 40.6406 32.0847 40.6406 32.4676C35.6412 32.4676 30.649 32.4676 25.6351 32.4676C25.6351 32.1064 25.6351 31.7452 25.6351 31.3552C25.9974 31.3552 26.3669 31.3552 26.7727 31.3552C26.7727 31.189 26.7727 31.059 26.7727 30.929C26.7727 28.6465 26.7727 26.3639 26.7727 24.0814C26.7727 23.4168 26.9248 23.2651 27.6059 23.2651C28.2435 23.2651 28.8811 23.2651 29.5259 23.2651C30.0549 23.2651 30.2433 23.4529 30.2433 23.9802C30.2433 26.2845 30.2433 28.5959 30.2433 30.9001C30.2433 31.0374 30.2433 31.1674 30.2433 31.3335ZM29.0622 31.3335C29.0622 29.0148 29.0622 26.7323 29.0622 24.457C28.671 24.457 28.3015 24.457 27.9464 24.457C27.9464 26.7612 27.9464 29.0437 27.9464 31.3335C28.3232 31.3335 28.6782 31.3335 29.0622 31.3335ZM38.322 31.3335C38.322 29.4049 38.322 27.498 38.322 25.6055C37.9307 25.6055 37.5612 25.6055 37.2062 25.6055C37.2062 27.5269 37.2062 29.4193 37.2062 31.3335C37.583 31.3335 37.938 31.3335 38.322 31.3335ZM32.5836 26.7467C32.5836 28.2925 32.5836 29.8094 32.5836 31.3191C32.9748 31.3191 33.3443 31.3191 33.6994 31.3191C33.6994 29.7805 33.6994 28.2708 33.6994 26.7467C33.3226 26.7467 32.9676 26.7467 32.5836 26.7467Z" fill="black"/>
</svg>
