<svg width="32" height="38" viewBox="0 0 32 38" fill="none" xmlns="http://www.w3.org/2000/svg">
<path d="M26.4109 20.1814C26.3681 15.4275 30.301 13.1147 30.4808 13.007C28.2535 9.75757 24.8012 9.3136 23.588 9.2782C20.6885 8.97287 17.876 11.0143 16.399 11.0143C14.8925 11.0143 12.618 9.3077 10.1666 9.35785C7.01207 9.40652 4.06098 11.234 2.44245 14.0719C-0.897806 19.8584 1.59338 28.3617 4.79359 33.039C6.39444 35.3296 8.26504 37.8873 10.7135 37.7973C13.1088 37.6985 14.0036 36.2692 16.8943 36.2692C19.7584 36.2692 20.5986 37.7973 23.0957 37.7398C25.6665 37.6985 27.285 35.4388 28.8298 33.1275C30.6798 30.502 31.4227 27.9163 31.4522 27.7835C31.3918 27.7629 26.4595 25.8793 26.4109 20.1814Z" fill="white"/>
<path d="M21.6939 6.20135C22.9822 4.58917 23.8637 2.39585 23.619 0.170074C21.7543 0.252674 19.4223 1.4607 18.0794 3.03747C16.8913 4.42692 15.83 6.70432 16.1042 8.84602C18.1988 9.00237 20.3495 7.78845 21.6939 6.20135Z" fill="white"/>
</svg>
