<svg width="65" height="65" viewBox="0 0 65 65" fill="none" xmlns="http://www.w3.org/2000/svg">
<circle cx="32.5" cy="32.5" r="32.5" fill="#F6E8D4"/>
<g clip-path="url(#clip0_414_10)">
<path d="M33.658 16C34.3344 16.1469 35.0349 16.2203 35.6812 16.448C39.1482 17.667 41.2375 20.0978 41.7075 23.7498C42.3126 28.4564 39.1834 32.6093 34.4937 33.4876C34.2073 33.5412 33.9158 33.5647 33.6051 33.6044V35.3471H45.6973C46.3083 35.3471 46.4816 35.5196 46.4831 36.1248C46.4831 37.006 46.4855 37.8853 46.4904 38.7626C46.4995 38.7983 46.5134 38.8327 46.5316 38.8647C46.8789 38.8647 47.2417 38.8698 47.6045 38.8647C47.8769 38.8596 48.0848 38.9602 48.192 39.2121C48.3058 39.4764 48.239 39.71 48.0363 39.9119C47.4738 40.4715 46.9178 41.0392 46.3472 41.5929C46.0461 41.8866 45.7421 41.8866 45.4432 41.5929C44.8748 41.0384 44.3189 40.4715 43.7542 39.9104C43.5529 39.71 43.4817 39.4801 43.5999 39.2128C43.7108 38.9609 43.9143 38.8581 44.1874 38.8632C44.5407 38.8691 44.8946 38.8632 45.2772 38.8632V36.5419H33.6007V38.8647C33.9363 38.8647 34.2852 38.8728 34.6325 38.8647C34.9263 38.8552 35.1708 38.9293 35.2934 39.2172C35.4198 39.5176 35.3015 39.7548 35.082 39.9699C34.5503 40.4913 34.0296 41.0245 33.4986 41.5474C33.1388 41.9028 32.8502 41.9006 32.4874 41.5422C31.9491 41.0091 31.4189 40.4686 30.8799 39.9369C30.6669 39.7276 30.5795 39.4919 30.7007 39.2113C30.8219 38.9308 31.0444 38.8566 31.3271 38.8647C31.6686 38.875 32.0101 38.8647 32.3817 38.8647V36.5419H20.7051V38.8647C21.0826 38.8647 21.4461 38.8698 21.8067 38.8647C22.0791 38.8603 22.3303 38.958 22.378 39.2179C22.4162 39.4272 22.378 39.732 22.2458 39.8789C21.6973 40.4855 21.1068 41.0539 20.5193 41.623C20.2542 41.88 19.9318 41.8771 19.6682 41.623C19.0807 41.0524 18.5072 40.4693 17.9307 39.8892C17.839 39.8063 17.7767 39.6959 17.7531 39.5746C17.7295 39.4533 17.746 39.3276 17.8 39.2165C17.9101 38.9646 18.1172 38.8647 18.3874 38.8698C18.7407 38.8772 19.0947 38.8698 19.5088 38.8698V38.5115C19.5088 37.6934 19.5088 36.8745 19.5088 36.0565C19.5088 35.5483 19.7071 35.3529 20.2197 35.3529C24.1153 35.3529 28.0114 35.3529 31.908 35.3529H32.3758V33.6859C31.5753 33.4847 30.7469 33.3642 29.9869 33.0698C26.705 31.7971 24.7346 29.3979 24.2808 25.906C23.6779 21.2735 26.7174 17.1229 31.2911 16.1807C31.6348 16.1072 31.9836 16.0632 32.3303 16.0059L33.658 16ZM33.0118 32.4154C37.2241 32.3817 40.6536 28.9404 40.6191 24.778C40.6141 23.7692 40.4094 22.7713 40.0169 21.842C39.6244 20.9127 39.0519 20.0702 38.3323 19.3632C37.6127 18.6562 36.7603 18.0985 35.8242 17.7225C34.8881 17.3464 33.8868 17.1594 32.8781 17.1721C28.7326 17.2161 25.3383 20.7059 25.3801 24.883C25.422 29.0307 28.8846 32.4478 33.0118 32.4154Z" fill="black"/>
<path d="M16 45.6048C16.0551 45.4212 16.1087 45.2376 16.1652 45.054C16.7021 43.3136 18.4756 42.165 20.2682 42.3956C22.1129 42.6328 23.5765 44.2036 23.6184 45.9896C23.6639 47.9724 22.4015 49.5785 20.5193 49.9325C19.5447 50.1169 18.5365 49.9148 17.7083 49.369C16.88 48.8232 16.2966 47.9765 16.0815 47.0082C16.0586 46.9296 16.0314 46.8524 16 46.7769V45.6048ZM19.8107 43.553C19.1132 43.5612 18.4467 43.842 17.9537 44.3354C17.4607 44.8288 17.1804 45.4956 17.1728 46.193C17.1691 47.6243 18.3794 48.8331 19.8121 48.828C20.5095 48.8215 21.1765 48.5414 21.6694 48.048C22.1623 47.5547 22.4419 46.8875 22.4478 46.1901C22.4478 44.7529 21.2405 43.5456 19.8107 43.553Z" fill="black"/>
<path d="M36.8099 46.207C36.7966 47.208 36.3898 48.1635 35.6774 48.8669C34.965 49.5703 34.0044 49.9649 33.0033 49.9655C32.0022 49.9661 31.0411 49.5725 30.3279 48.87C29.6147 48.1674 29.2067 47.2124 29.1923 46.2114C29.1923 44.0575 30.8901 42.3743 33.0551 42.3824C35.1319 42.3897 36.8158 44.1015 36.8099 46.207ZM35.6386 46.2121C35.6359 45.5147 35.3603 44.846 34.8709 44.349C34.3816 43.8521 33.7172 43.5664 33.0198 43.5529C31.5929 43.5339 30.3761 44.7331 30.3621 46.171C30.3482 47.6089 31.5371 48.8103 32.9794 48.8279C34.4107 48.8441 35.6305 47.6449 35.6408 46.2121H35.6386Z" fill="black"/>
<path d="M46.2026 42.3816C47.2128 42.3845 48.1805 42.7886 48.8928 43.5051C49.6051 44.2215 50.0037 45.1915 50.0007 46.2018C49.9978 47.2121 49.5937 48.1798 48.8773 48.8921C48.1608 49.6044 47.1908 50.0029 46.1805 50C44.0567 49.9941 42.3772 48.2874 42.3824 46.1409C42.3868 44.064 44.1001 42.3779 46.2026 42.3816ZM46.1989 43.5529C45.5018 43.5594 44.8348 43.8384 44.3407 44.3303C43.8467 44.8221 43.5647 45.4878 43.5551 46.1849C43.5456 47.6155 44.7529 48.8287 46.1864 48.8287C46.8839 48.8241 47.5517 48.5459 48.0461 48.0539C48.5405 47.562 48.8221 46.8956 48.8301 46.1981C48.8331 44.7624 47.6294 43.5507 46.1989 43.5529Z" fill="black"/>
<path d="M33.6 21.8742V24.1934C34.4284 24.1853 35.1245 24.4754 35.6327 25.14C35.9721 25.5793 36.1369 26.1286 36.0954 26.6822C36.0219 27.9644 35.1635 28.7384 33.5897 28.9264V30.3158H32.4301V28.911C31.5966 28.9242 30.918 28.6473 30.4106 28.0202C30.0726 27.6166 29.8953 27.1026 29.9127 26.5764H31.0422C31.2625 27.3974 31.6414 27.7242 32.3905 27.7125V25.3926C31.5738 25.4007 30.8769 25.1099 30.3687 24.446C30.0367 24.0165 29.8718 23.481 29.9046 22.9391C29.9634 21.6392 30.8255 20.8461 32.4132 20.6625V19.2701H33.5721V20.6787C34.4056 20.6669 35.0864 20.9379 35.5909 21.5695C35.9306 21.9705 36.1072 22.4845 36.0858 23.0096H34.96C34.739 22.1856 34.363 21.861 33.6 21.8742ZM32.3971 21.8684C31.883 21.8456 31.4931 22.0233 31.2419 22.4507C31.1259 22.6325 31.0666 22.8447 31.0715 23.0603C31.0763 23.2759 31.1451 23.4852 31.2691 23.6617C31.5276 24.0568 31.9087 24.233 32.3971 24.1926V21.8684ZM33.6044 27.7132C34.4195 27.7198 34.9424 27.2139 34.9138 26.4839C34.8873 25.8274 34.3204 25.3522 33.6044 25.4036V27.7132Z" fill="black"/>
</g>
<defs>
<clipPath id="clip0_414_10">
<rect width="34" height="34" fill="white" transform="translate(16 16)"/>
</clipPath>
</defs>
</svg>
