<svg width="65" height="65" viewBox="0 0 65 65" fill="none" xmlns="http://www.w3.org/2000/svg">
<circle cx="32.5" cy="32.5" r="32.5" fill="#F6E8D4"/>
<g clip-path="url(#clip0_414_8)">
<path d="M33.716 14.0015C34.3132 14.1333 34.9136 14.2556 35.5077 14.3986C35.877 14.4883 36.0557 14.7758 36.0636 15.1276C36.0715 15.4659 35.9008 15.763 35.5577 15.8495C35.3428 15.8962 35.1196 15.8891 34.9081 15.8289C33.5214 15.4723 32.1364 15.4453 30.7894 15.9448C28.1917 16.9082 26.6097 18.7554 26.1832 21.5152C25.605 25.2542 28.283 28.7764 32.0093 29.3109C33.7751 29.5619 35.5697 29.1221 37.0195 28.0832C38.4693 27.0443 39.4624 25.4862 39.7923 23.7334C39.9929 22.6668 39.9352 21.5677 39.6239 20.5281C39.5699 20.3414 39.508 20.1405 39.5262 19.9539C39.5415 19.7811 39.619 19.6198 39.7444 19.5C39.8698 19.3802 40.0344 19.3101 40.2077 19.3026C40.6286 19.2693 40.9176 19.4448 41.0503 19.8586C41.3519 20.7603 41.4946 21.7075 41.472 22.6581C41.4077 24.468 40.8668 26.1223 39.7589 27.5677C38.2659 29.5166 36.2852 30.6189 33.8216 30.9152V49.7476L33.901 49.8326C34.2624 49.4419 34.6158 49.0472 34.9875 48.6628C35.3433 48.2911 35.8539 47.9885 36.0334 47.5509C36.2185 47.0951 36.085 46.5113 36.0914 45.9832C36.1065 44.7594 36.0422 43.5363 36.3177 42.322C37.0675 39.0182 39.8717 36.3093 43.2271 35.8971C44.8552 35.6969 46.5174 35.7644 48.1654 35.7462C48.6967 35.7398 49.0056 36.0869 49.0016 36.6023C48.9897 38.0803 49.0239 39.563 48.9222 41.0346C48.7729 43.1472 47.831 44.9198 46.2919 46.3557C44.6312 47.9051 42.6482 48.6644 40.3705 48.6413C39.4595 48.6326 38.5438 48.6501 37.6377 48.6342C37.5086 48.6252 37.3792 48.6456 37.2592 48.6937C37.1391 48.7419 37.0315 48.8165 36.9444 48.9121C36.0414 49.839 35.1312 50.7602 34.1981 51.6568C33.8979 51.9451 33.7319 52.2382 33.7962 52.6535C33.8039 52.7609 33.8039 52.8686 33.7962 52.976H32.2118V52.5519C32.2118 50.2535 32.2055 47.9552 32.2198 45.6568C32.2264 45.5151 32.2014 45.3736 32.1464 45.2428C32.0914 45.112 32.008 44.9952 31.9021 44.9007C30.9387 43.9596 29.996 42.9947 29.0335 42.0552C28.8834 41.9197 28.6913 41.8401 28.4895 41.8296C27.4205 41.809 26.35 41.8479 25.2818 41.8145C21.1012 41.6843 17.8069 38.6092 17.1581 34.8194C17.1096 34.5374 17.0548 34.2563 16.9993 33.9744V29.5341C17.1946 29.0576 17.5504 28.8662 18.0595 28.8987C18.4407 28.921 18.8251 28.8916 19.2079 28.9051C20.4301 28.9488 21.6698 28.8852 22.8722 29.0735C26.9114 29.7088 29.9071 33.2922 29.9111 37.3782C29.9111 38.3813 29.9111 39.3851 29.915 40.3882C29.915 40.5256 29.9222 40.7059 30.0048 40.7924C30.7045 41.5215 31.4216 42.2339 32.1832 43.0002V30.9128C31.8822 30.8699 31.6074 30.8421 31.3382 30.7889C26.9647 29.9201 23.9483 25.726 24.6298 21.2857C25.1404 17.9549 27.0687 15.6708 30.2335 14.4923C30.9125 14.2397 31.6559 14.1603 32.3691 14.0015H33.716ZM28.2433 39.0738L28.4021 39.0135C28.3227 37.9659 28.3442 36.8993 28.1504 35.8733C27.6326 33.1365 25.1912 30.8842 22.4108 30.5768C21.237 30.4474 20.0418 30.5093 18.8561 30.4871C18.7876 30.4891 18.7195 30.4976 18.6527 30.5125C18.6527 31.7967 18.5169 33.0666 18.6805 34.296C19.0451 37.0248 20.6406 38.8451 23.1907 39.8505C24.382 40.3191 25.6217 40.2357 26.8574 40.2373C26.9686 40.231 27.0794 40.2191 27.1894 40.2015C26.0633 39.0738 24.98 37.9921 23.8983 36.9081C23.4305 36.4387 23.3686 35.9924 23.7164 35.6374C24.0643 35.2824 24.5217 35.3316 24.9871 35.7962C25.4933 36.2981 25.9976 36.8011 26.5001 37.3052C27.0846 37.8905 27.6612 38.4821 28.2433 39.0722V39.0738ZM38.8679 46.9847C39.9797 47.0871 41.0685 47.1435 42.1423 46.8925C44.8155 46.2715 47.0622 43.854 47.3291 41.1744C47.453 39.9196 47.3894 38.6473 47.4085 37.3822C47.4085 37.3623 47.3775 37.3425 47.3148 37.2647C46.0576 37.3068 44.7273 37.1948 43.4574 37.4235C39.4508 38.1422 37.1373 41.5866 37.7282 45.9062C37.833 45.8085 37.9283 45.7227 38.0189 45.633C39.064 44.5878 40.1052 43.5387 41.1559 42.4991C41.5053 42.1529 41.9183 42.1441 42.2479 42.4451C42.5775 42.7461 42.5981 43.1678 42.3043 43.5419C42.2188 43.6426 42.1276 43.7383 42.0311 43.8286L38.8679 46.9847Z" fill="black"/>
<path d="M30.3899 24.2092C30.3899 23.7502 30.6846 23.4055 31.1047 23.3602C31.5097 23.3174 31.8631 23.6358 31.956 24.1274C32.0831 24.7993 32.6168 25.1527 33.2792 25.001C33.7771 24.889 34.0781 24.5062 34.0336 24.0409C33.9947 23.6382 33.596 23.2872 33.1156 23.2729C32.5231 23.2546 31.964 23.1331 31.4748 22.7964C30.7147 22.2674 30.3113 21.5328 30.3987 20.6028C30.486 19.6729 31.0253 19.0049 31.8766 18.6079C32.0791 18.5149 32.207 18.4395 32.2523 18.1901C32.2874 18.0136 32.383 17.8549 32.5227 17.7414C32.6623 17.6279 32.8371 17.5667 33.0171 17.5683C33.1967 17.5752 33.3686 17.6433 33.5042 17.7614C33.6398 17.8794 33.7311 18.0402 33.7628 18.2171C33.8001 18.4355 33.9002 18.5157 34.0805 18.5936C34.9771 18.9771 35.5005 19.6586 35.6085 20.6298C35.6673 21.1572 35.3567 21.5471 34.8977 21.5972C34.4927 21.6408 34.1377 21.3216 34.0455 20.83C33.9169 20.143 33.353 19.7832 32.6859 19.9627C32.2014 20.093 31.9259 20.4575 31.9711 20.9157C32.0108 21.3343 32.4191 21.6742 32.9242 21.6885C33.7358 21.7115 34.4593 21.9577 35.0009 22.5788C36.0977 23.8352 35.6704 25.6665 34.1273 26.3511C33.9232 26.4417 33.7954 26.5203 33.7493 26.7689C33.7145 26.9454 33.6191 27.1043 33.4796 27.218C33.3401 27.3317 33.1653 27.3931 32.9853 27.3915C32.8056 27.3845 32.6338 27.3162 32.4983 27.198C32.3628 27.0799 32.2718 26.9189 32.2404 26.7419C32.2022 26.5219 32.1014 26.4433 31.9227 26.3662C30.9967 25.9675 30.3828 25.0971 30.3899 24.2092Z" fill="black"/>
<path d="M37.6591 17.0195C37.6575 16.9176 37.6763 16.8164 37.7145 16.7219C37.7527 16.6274 37.8095 16.5416 37.8815 16.4695C37.9535 16.3973 38.0392 16.3404 38.1336 16.302C38.228 16.2636 38.3291 16.2445 38.431 16.2459C38.636 16.2522 38.8302 16.3391 38.9713 16.4879C39.1125 16.6366 39.1892 16.8351 39.1847 17.0401C39.1863 17.1422 39.1674 17.2436 39.1291 17.3382C39.0909 17.4329 39.034 17.5189 38.9618 17.5912C38.8897 17.6635 38.8038 17.7206 38.7093 17.759C38.6147 17.7975 38.5133 17.8166 38.4113 17.8153C38.3092 17.8139 38.2084 17.792 38.1149 17.751C38.0214 17.71 37.9371 17.6506 37.8669 17.5764C37.7968 17.5022 37.7422 17.4146 37.7065 17.319C37.6708 17.2233 37.6547 17.1215 37.6591 17.0195Z" fill="black"/>
</g>
<defs>
<clipPath id="clip0_414_8">
<rect width="32" height="38.9745" fill="white" transform="translate(17 14)"/>
</clipPath>
</defs>
</svg>
