<svg width="35" height="39" viewBox="0 0 35 39" fill="none" xmlns="http://www.w3.org/2000/svg">
<path fill-rule="evenodd" clip-rule="evenodd" d="M1.39002 1.11216C0.963334 1.57195 0.716888 2.2745 0.716888 3.19408V35.8096C0.716888 36.7292 0.963334 37.4317 1.40473 37.8731L1.51876 37.9724L19.7926 19.6986V19.2903L1.50405 1.01284L1.39002 1.11216Z" fill="white"/>
<path fill-rule="evenodd" clip-rule="evenodd" d="M25.8728 25.8083L19.7779 19.7133V19.2867L25.8728 13.1917L26.0052 13.2726L33.2147 17.3703C35.2782 18.5326 35.2782 20.4527 33.2147 21.6297L26.0052 25.7274L25.8728 25.8083Z" fill="white"/>
<path fill-rule="evenodd" clip-rule="evenodd" d="M26.0052 25.7274L19.7779 19.5L1.39001 37.8878C2.06314 38.6088 3.19238 38.6897 4.45404 37.9872L26.0052 25.7274Z" fill="white"/>
<path fill-rule="evenodd" clip-rule="evenodd" d="M26.0052 13.2726L4.45404 1.03123C3.19238 0.310287 2.05947 0.409602 1.39001 1.13055L19.7779 19.5L26.0052 13.2726Z" fill="white"/>
<path opacity="0.2" fill-rule="evenodd" clip-rule="evenodd" d="M25.8728 25.595L4.46875 37.7554C3.2733 38.4433 2.20659 38.3954 1.51875 37.7701L1.40472 37.8842L1.51875 37.9835C2.20659 38.6051 3.2733 38.6566 4.46875 37.9688L26.0199 25.7274L25.8728 25.595Z" fill="black"/>
<path opacity="0.12" fill-rule="evenodd" clip-rule="evenodd" d="M33.2147 21.4164L25.8544 25.595L25.9868 25.7274L33.1963 21.6297C34.2299 21.0412 34.7375 20.2688 34.7375 19.5C34.675 20.2062 34.149 20.8757 33.2147 21.4164Z" fill="black"/>
<path opacity="0.25" fill-rule="evenodd" clip-rule="evenodd" d="M4.45405 1.24458L33.2147 17.5836C34.149 18.1096 34.675 18.7974 34.7559 19.5C34.7559 18.7312 34.2483 17.9588 33.2147 17.3703L4.45405 1.03124C2.39052 -0.1495 0.716888 0.836286 0.716888 3.19408V3.40742C0.716888 1.04595 2.39052 0.0785559 4.45405 1.24458Z" fill="white"/>
</svg>
