<svg width="65" height="65" viewBox="0 0 65 65" fill="none" xmlns="http://www.w3.org/2000/svg">
<circle cx="32.5" cy="32.5" r="32.5" fill="#F6E8D4"/>
<g clip-path="url(#clip0_414_9)">
<path d="M33.34 14C33.5788 14.2119 33.8492 14.3969 34.0517 14.6384C36.7236 17.8282 39.3898 21.0224 42.0504 24.2212C42.5213 24.7835 42.53 25.4253 42.0181 25.8188C41.7858 25.9856 41.5089 26.0793 41.223 26.0878C40.06 26.1161 38.8963 26.1 37.7326 26.1H37.329C37.3222 26.2345 37.3115 26.3556 37.3115 26.4733C37.3115 28.9346 37.3115 31.3959 37.3054 33.8565C37.3025 33.9605 37.3224 34.064 37.3638 34.1595C37.4052 34.255 37.467 34.3403 37.5449 34.4094C41.5432 38.4006 45.5371 42.3962 49.5264 46.3964C49.7222 46.5928 49.9038 46.8544 49.9717 47.1168C50.0962 47.6018 49.8473 48.0484 49.4269 48.2691C49.2225 48.3769 48.9885 48.4156 48.7603 48.3792C48.532 48.3428 48.3217 48.2333 48.1609 48.0673C47.23 47.1471 46.3077 46.2181 45.3821 45.2925C42.1358 42.0453 38.8898 38.8015 35.6439 35.561C35.481 35.4102 35.3524 35.2262 35.2667 35.0213C35.1811 34.8165 35.1404 34.5957 35.1475 34.3738C35.1603 31.3199 35.1535 28.2659 35.1542 25.2114C35.1542 24.3524 35.5666 23.9427 36.4323 23.9414H39.0032L33.0037 16.7492L27.017 23.9198C27.1649 23.9293 27.2591 23.94 27.3533 23.9407C28.1363 23.9407 28.9193 23.9367 29.7022 23.9407C30.3843 23.9467 30.8458 24.4008 30.8458 25.0755C30.8494 28.2433 30.8512 31.41 30.8512 34.5756C30.8512 34.9644 30.6689 35.2482 30.4052 35.5126C28.1087 37.8046 25.8133 40.0982 23.5191 42.3933C21.6679 44.2445 19.8194 46.0997 17.9588 47.9395C17.758 48.1434 17.5043 48.2873 17.2263 48.3552C16.7184 48.4534 16.3 48.1957 16.0975 47.7673C15.9018 47.3542 15.9953 46.8699 16.3558 46.5087C17.8572 45.0033 19.3595 43.4999 20.8627 41.9985C23.396 39.4674 25.9268 36.9351 28.4551 34.4013C28.5901 34.2635 28.6723 34.0825 28.6872 33.8901C28.702 31.4066 28.6973 28.9231 28.6966 26.4396C28.6966 26.3408 28.6865 26.2426 28.6791 26.0993H28.3071C27.1441 26.0993 25.9804 26.0919 24.8173 26.0993C24.3229 26.104 23.9429 25.9365 23.7202 25.4831C23.4908 25.0122 23.6334 24.6026 23.9543 24.2185C26.6293 21.0179 29.3036 17.8165 31.9772 14.6141C32.173 14.3807 32.4353 14.2025 32.666 13.9987L33.34 14Z" fill="black"/>
<path d="M33.0299 41.9763C32.8053 42.2232 32.6687 42.3866 32.5187 42.5367C30.7083 44.3497 28.8968 46.1623 27.0842 47.9745C26.7351 48.3256 26.3443 48.475 25.8734 48.3263C25.7081 48.272 25.5586 48.1782 25.4379 48.053C25.3171 47.9278 25.2287 47.7749 25.1805 47.6078C25.1322 47.4407 25.1255 47.2643 25.1609 47.094C25.1963 46.9236 25.2728 46.7645 25.3837 46.6305C25.4826 46.5101 25.6003 46.4045 25.7106 46.2942C27.8551 44.1506 29.9993 42.007 32.1434 39.8635C32.7003 39.3072 33.2956 39.2998 33.8439 39.8473C36.0529 42.0532 38.2613 44.2596 40.469 46.4664C40.7898 46.7866 40.9345 47.1512 40.8241 47.5891C40.6385 48.329 39.7358 48.629 39.133 48.1655C39.0291 48.0806 38.931 47.9889 38.8391 47.8911C36.9875 46.0399 35.1367 44.1881 33.2869 42.3355C33.2055 42.2487 33.1436 42.1371 33.0299 41.9763Z" fill="black"/>
</g>
<defs>
<clipPath id="clip0_414_9">
<rect width="34" height="34.3895" fill="white" transform="translate(16 14)"/>
</clipPath>
</defs>
</svg>
